# xmcd CD database file
#
# Track frame offsets:
#	150
#	13622
#	27107
#	40712
#	54300
#	69443
#	84637
#	99555
#	113316
#	126722
#	140740
#	153300
#	168299
#	179558
#	191718
#	203997
#	215721
#	227032
#	239114
#	250635
#	262906
#
# Disc length: 3694 seconds
#
# Revision: 0
# Processed by: cddbd v1.5.2PL0 Copyright (c) Steve Scherf et al.
# Submitted via: CDex 1.70beta2
#
DISCID=280e6c15
DTITLE=Various Artist - Jazz Roads CD377 - Bebop - White Bebop Boys Vol. 1 (1945-47)
DYEAR=1900
DGENRE=Jazz
TTITLE0=Kai's Krazy Kats/Kai Winding's New Jazz Group - Sweet Miss
TTITLE1=Kai's Krazy Kats/Kai Winding's New Jazz Group - Sweet Miss
TTITLE2=Kai's Krazy Kats/Kai Winding's New Jazz Group - Loaded
TTITLE3=Kai's Krazy Kats/Kai Winding's New Jazz Group - Loaded
TTITLE4=Kai's Krazy Kats/Kai Winding's New Jazz Group - Grab Your Axe, Max
TTITLE5=Kai's Krazy Kats/Kai Winding's New Jazz Group - Grab Your Axe, Max
TTITLE6=Kai's Krazy Kats/Kai Winding's New Jazz Group - Always
TTITLE7=Allen Eager Quartet - Rampage
TTITLE8=Allen Eager Quartet - Vot's Dot?
TTITLE9=Allen Eager Quartet - Booby Hatch (Pogo Stick)
TTITLE10=Allen Eager Quartet - Symphony Sid's Idea (Zadah)
TTITLE11=Gene Krupa And His Orchestra - How High The Moon
TTITLE12=Stan Getz Quartet /The Be Bop Boys - Opus De Bop
TTITLE13=Stan Getz Quartet /The Be Bop Boys - And The Angels Swing
TTITLE14=Stan Getz Quartet /The Be Bop Boys - Running Water
TTITLE15=Stan Getz Quartet /The Be Bop Boys - Don't Worry 'bout Me
TTITLE16=Terry Reig's All Stars - O-Go-Mo
TTITLE17=Terry Reig's All Stars - Mr. Dues
TTITLE18=Terry Reig's All Stars - Oh, Kai
TTITLE19=Terry Reig's All Stars - Saxon
TTITLE20=Gene Krupa And His Orchestra - Disc Jockey Jump
EXTD=
EXTT0=
EXTT1=
EXTT2=
EXTT3=
EXTT4=
EXTT5=
EXTT6=
EXTT7=
EXTT8=
EXTT9=
EXTT10=
EXTT11=
EXTT12=
EXTT13=
EXTT14=
EXTT15=
EXTT16=
EXTT17=
EXTT18=
EXTT19=
EXTT20=
PLAYORDER=
